<mxfile host="Electron" agent="Mozilla/5.0 (Windows NT 10.0; Win64; x64) AppleWebKit/537.36 (KHTML, like Gecko) draw.io/26.0.4 Chrome/128.0.6613.186 Electron/32.2.5 Safari/537.36" version="26.0.4">
  <diagram name="Page-1" id="chUQzAX2jWDJ99c_aO13">
    <mxGraphModel dx="3676" dy="3312" grid="1" gridSize="10" guides="1" tooltips="1" connect="1" arrows="1" fold="1" page="1" pageScale="1" pageWidth="500" pageHeight="850" math="0" shadow="0">
      <root>
        <mxCell id="0" />
        <mxCell id="1" parent="0" />
        <mxCell id="rWfCg9TSfhqG7Xw_bbmV-16" value="" style="rounded=0;whiteSpace=wrap;html=1;" parent="1" vertex="1">
          <mxGeometry x="-80" y="110" width="910" height="41" as="geometry" />
        </mxCell>
        <mxCell id="cqWDmSOdRiG-y1bQQgDe-15" value="" style="edgeStyle=orthogonalEdgeStyle;rounded=0;orthogonalLoop=1;jettySize=auto;html=1;" parent="1" source="rWfCg9TSfhqG7Xw_bbmV-17" edge="1">
          <mxGeometry relative="1" as="geometry">
            <mxPoint x="40" y="350" as="targetPoint" />
            <Array as="points">
              <mxPoint x="-63" y="280" />
              <mxPoint x="40" y="280" />
            </Array>
          </mxGeometry>
        </mxCell>
        <mxCell id="rWfCg9TSfhqG7Xw_bbmV-17" value="&lt;b&gt;&lt;font style=&quot;color: rgb(0, 0, 204);&quot;&gt;ID&lt;/font&gt;&lt;/b&gt;" style="rounded=0;whiteSpace=wrap;html=1;labelBorderColor=none;strokeColor=default;align=center;verticalAlign=middle;fontFamily=Helvetica;fontSize=12;fontColor=default;fillColor=default;fontStyle=4" parent="1" vertex="1">
          <mxGeometry x="-80" y="110" width="40" height="41" as="geometry" />
        </mxCell>
        <mxCell id="rWfCg9TSfhqG7Xw_bbmV-18" value="NationalID" style="rounded=0;whiteSpace=wrap;html=1;" parent="1" vertex="1">
          <mxGeometry x="-49" y="110" width="69" height="41" as="geometry" />
        </mxCell>
        <mxCell id="rWfCg9TSfhqG7Xw_bbmV-20" value="FName" style="rounded=0;whiteSpace=wrap;html=1;" parent="1" vertex="1">
          <mxGeometry x="20" y="110" width="49" height="41" as="geometry" />
        </mxCell>
        <mxCell id="rWfCg9TSfhqG7Xw_bbmV-21" value="LName" style="rounded=0;whiteSpace=wrap;html=1;" parent="1" vertex="1">
          <mxGeometry x="69" y="110" width="49" height="41" as="geometry" />
        </mxCell>
        <mxCell id="rWfCg9TSfhqG7Xw_bbmV-22" value="NickName" style="rounded=0;whiteSpace=wrap;html=1;" parent="1" vertex="1">
          <mxGeometry x="118" y="110" width="59" height="41" as="geometry" />
        </mxCell>
        <mxCell id="rWfCg9TSfhqG7Xw_bbmV-23" value="Gender" style="rounded=0;whiteSpace=wrap;html=1;" parent="1" vertex="1">
          <mxGeometry x="177" y="110" width="49" height="41" as="geometry" />
        </mxCell>
        <mxCell id="rWfCg9TSfhqG7Xw_bbmV-24" value="BrithDate" style="rounded=0;whiteSpace=wrap;html=1;" parent="1" vertex="1">
          <mxGeometry x="226" y="110" width="59" height="41" as="geometry" />
        </mxCell>
        <mxCell id="rWfCg9TSfhqG7Xw_bbmV-26" value="Area" style="rounded=0;whiteSpace=wrap;html=1;" parent="1" vertex="1">
          <mxGeometry x="285" y="110" width="39" height="41" as="geometry" />
        </mxCell>
        <mxCell id="rWfCg9TSfhqG7Xw_bbmV-27" value="Street" style="rounded=0;whiteSpace=wrap;html=1;" parent="1" vertex="1">
          <mxGeometry x="324" y="110" width="39" height="41" as="geometry" />
        </mxCell>
        <mxCell id="rWfCg9TSfhqG7Xw_bbmV-28" value="Marital Status" style="rounded=0;whiteSpace=wrap;html=1;" parent="1" vertex="1">
          <mxGeometry x="363" y="110" width="79" height="41" as="geometry" />
        </mxCell>
        <mxCell id="rWfCg9TSfhqG7Xw_bbmV-29" value="Father Status" style="rounded=0;whiteSpace=wrap;html=1;" parent="1" vertex="1">
          <mxGeometry x="442" y="110" width="79" height="41" as="geometry" />
        </mxCell>
        <mxCell id="rWfCg9TSfhqG7Xw_bbmV-30" value="Mother Status" style="rounded=0;whiteSpace=wrap;html=1;" parent="1" vertex="1">
          <mxGeometry x="521" y="110" width="79" height="41" as="geometry" />
        </mxCell>
        <mxCell id="rWfCg9TSfhqG7Xw_bbmV-31" value="Male Children" style="rounded=0;whiteSpace=wrap;html=1;" parent="1" vertex="1">
          <mxGeometry x="600" y="110" width="79" height="41" as="geometry" />
        </mxCell>
        <mxCell id="rWfCg9TSfhqG7Xw_bbmV-32" value="Female Children" style="rounded=0;whiteSpace=wrap;html=1;" parent="1" vertex="1">
          <mxGeometry x="679" y="110" width="99" height="41" as="geometry" />
        </mxCell>
        <mxCell id="rWfCg9TSfhqG7Xw_bbmV-33" value="Is Active" style="rounded=0;whiteSpace=wrap;html=1;fontSize=12;" parent="1" vertex="1">
          <mxGeometry x="778" y="110" width="59" height="41" as="geometry" />
        </mxCell>
        <mxCell id="s3ZGzPAjasaIniYn7jiy-3" value="&lt;b&gt;&lt;font style=&quot;color: rgb(0, 0, 204);&quot;&gt;ID&lt;/font&gt;&lt;/b&gt;" style="rounded=0;whiteSpace=wrap;html=1;labelBorderColor=none;strokeColor=default;align=center;verticalAlign=middle;fontFamily=Helvetica;fontSize=12;fontColor=default;fillColor=default;fontStyle=4" parent="1" vertex="1">
          <mxGeometry x="69" y="176" width="33" height="44" as="geometry" />
        </mxCell>
        <mxCell id="s3ZGzPAjasaIniYn7jiy-8" value="Season Types" style="rounded=0;whiteSpace=wrap;html=1;" parent="1" vertex="1">
          <mxGeometry x="192" y="176" width="90" height="44" as="geometry" />
        </mxCell>
        <mxCell id="s3ZGzPAjasaIniYn7jiy-9" value="Amount" style="rounded=0;whiteSpace=wrap;html=1;" parent="1" vertex="1">
          <mxGeometry x="282" y="176" width="60" height="44" as="geometry" />
        </mxCell>
        <mxCell id="s3ZGzPAjasaIniYn7jiy-10" value="Registration date" style="rounded=0;whiteSpace=wrap;html=1;" parent="1" vertex="1">
          <mxGeometry x="342" y="176" width="100" height="44" as="geometry" />
        </mxCell>
        <mxCell id="s3ZGzPAjasaIniYn7jiy-11" value="Received date" style="rounded=0;whiteSpace=wrap;html=1;" parent="1" vertex="1">
          <mxGeometry x="442" y="176" width="80" height="44" as="geometry" />
        </mxCell>
        <mxCell id="s3ZGzPAjasaIniYn7jiy-12" value="Notes" style="rounded=0;whiteSpace=wrap;html=1;" parent="1" vertex="1">
          <mxGeometry x="521" y="176" width="57" height="44" as="geometry" />
        </mxCell>
        <mxCell id="s3ZGzPAjasaIniYn7jiy-23" value="" style="group" parent="1" vertex="1" connectable="0">
          <mxGeometry x="102" y="176" width="90" height="44" as="geometry" />
        </mxCell>
        <mxCell id="s3ZGzPAjasaIniYn7jiy-4" value="Case ID" style="rounded=0;whiteSpace=wrap;html=1;" parent="s3ZGzPAjasaIniYn7jiy-23" vertex="1">
          <mxGeometry width="90" height="44" as="geometry" />
        </mxCell>
        <mxCell id="s3ZGzPAjasaIniYn7jiy-20" value="" style="endArrow=none;dashed=1;html=1;dashPattern=1 3;strokeWidth=2;rounded=0;" parent="s3ZGzPAjasaIniYn7jiy-23" edge="1">
          <mxGeometry width="50" height="50" relative="1" as="geometry">
            <mxPoint x="14.178082191780824" y="33" as="sourcePoint" />
            <mxPoint x="75.8219178082192" y="33" as="targetPoint" />
            <Array as="points">
              <mxPoint x="38.835616438356176" y="33" />
            </Array>
          </mxGeometry>
        </mxCell>
        <mxCell id="s3ZGzPAjasaIniYn7jiy-30" value="" style="endArrow=classic;html=1;rounded=0;exitX=0;exitY=0.5;exitDx=0;exitDy=0;" parent="1" source="rWfCg9TSfhqG7Xw_bbmV-17" edge="1">
          <mxGeometry width="50" height="50" relative="1" as="geometry">
            <mxPoint x="-100" y="140" as="sourcePoint" />
            <mxPoint x="140" y="220" as="targetPoint" />
            <Array as="points">
              <mxPoint x="-100" y="131" />
              <mxPoint x="-100" y="160" />
              <mxPoint x="-100" y="180" />
              <mxPoint x="-100" y="198" />
              <mxPoint x="-100" y="240" />
              <mxPoint x="-20" y="240" />
              <mxPoint x="20" y="240" />
              <mxPoint x="140" y="240" />
            </Array>
          </mxGeometry>
        </mxCell>
        <mxCell id="s3ZGzPAjasaIniYn7jiy-32" value="&lt;b&gt;&lt;font style=&quot;color: rgb(0, 0, 204);&quot;&gt;ID&lt;/font&gt;&lt;/b&gt;" style="rounded=0;whiteSpace=wrap;html=1;labelBorderColor=none;strokeColor=default;align=center;verticalAlign=middle;fontFamily=Helvetica;fontSize=12;fontColor=default;fillColor=default;fontStyle=4" parent="1" vertex="1">
          <mxGeometry x="77" y="256" width="33" height="44" as="geometry" />
        </mxCell>
        <mxCell id="s3ZGzPAjasaIniYn7jiy-33" value="Season Types" style="rounded=0;whiteSpace=wrap;html=1;" parent="1" vertex="1">
          <mxGeometry x="195" y="256" width="90" height="44" as="geometry" />
        </mxCell>
        <mxCell id="s3ZGzPAjasaIniYn7jiy-34" value="Aid Type" style="rounded=0;whiteSpace=wrap;html=1;" parent="1" vertex="1">
          <mxGeometry x="282" y="256" width="60" height="44" as="geometry" />
        </mxCell>
        <mxCell id="s3ZGzPAjasaIniYn7jiy-35" value="Registration date" style="rounded=0;whiteSpace=wrap;html=1;" parent="1" vertex="1">
          <mxGeometry x="342" y="256" width="100" height="44" as="geometry" />
        </mxCell>
        <mxCell id="s3ZGzPAjasaIniYn7jiy-36" value="Received date" style="rounded=0;whiteSpace=wrap;html=1;" parent="1" vertex="1">
          <mxGeometry x="442" y="256" width="80" height="44" as="geometry" />
        </mxCell>
        <mxCell id="s3ZGzPAjasaIniYn7jiy-37" value="Notes" style="rounded=0;whiteSpace=wrap;html=1;" parent="1" vertex="1">
          <mxGeometry x="522" y="256" width="57" height="44" as="geometry" />
        </mxCell>
        <mxCell id="s3ZGzPAjasaIniYn7jiy-38" value="" style="group" parent="1" vertex="1" connectable="0">
          <mxGeometry x="110" y="256" width="90" height="44" as="geometry" />
        </mxCell>
        <mxCell id="s3ZGzPAjasaIniYn7jiy-39" value="Case ID" style="rounded=0;whiteSpace=wrap;html=1;" parent="s3ZGzPAjasaIniYn7jiy-38" vertex="1">
          <mxGeometry width="90" height="44" as="geometry" />
        </mxCell>
        <mxCell id="s3ZGzPAjasaIniYn7jiy-40" value="" style="endArrow=none;dashed=1;html=1;dashPattern=1 3;strokeWidth=2;rounded=0;" parent="s3ZGzPAjasaIniYn7jiy-38" edge="1">
          <mxGeometry width="50" height="50" relative="1" as="geometry">
            <mxPoint x="14.178082191780824" y="33" as="sourcePoint" />
            <mxPoint x="75.8219178082192" y="33" as="targetPoint" />
            <Array as="points">
              <mxPoint x="38.835616438356176" y="33" />
            </Array>
          </mxGeometry>
        </mxCell>
        <mxCell id="s3ZGzPAjasaIniYn7jiy-42" value="" style="endArrow=classic;html=1;rounded=0;exitX=0;exitY=0.25;exitDx=0;exitDy=0;entryX=0.596;entryY=0.945;entryDx=0;entryDy=0;entryPerimeter=0;" parent="1" source="rWfCg9TSfhqG7Xw_bbmV-17" target="s3ZGzPAjasaIniYn7jiy-39" edge="1">
          <mxGeometry width="50" height="50" relative="1" as="geometry">
            <mxPoint x="-60" y="160" as="sourcePoint" />
            <mxPoint x="10" y="380" as="targetPoint" />
            <Array as="points">
              <mxPoint x="-140" y="120" />
              <mxPoint x="-180" y="120" />
              <mxPoint x="-180" y="200" />
              <mxPoint x="-180" y="278" />
              <mxPoint x="-180" y="320" />
              <mxPoint x="-80" y="320" />
              <mxPoint x="-50" y="320" />
              <mxPoint y="320" />
              <mxPoint x="80" y="320" />
              <mxPoint x="130" y="320" />
              <mxPoint x="164" y="320" />
            </Array>
          </mxGeometry>
        </mxCell>
        <mxCell id="cqWDmSOdRiG-y1bQQgDe-6" value="&lt;b&gt;&lt;u&gt;&lt;font style=&quot;color: rgb(0, 0, 204);&quot;&gt;ID&lt;/font&gt;&lt;/u&gt;&lt;/b&gt;" style="rounded=0;whiteSpace=wrap;html=1;" parent="1" vertex="1">
          <mxGeometry x="-88.5" y="356" width="40" height="48" as="geometry" />
        </mxCell>
        <mxCell id="cqWDmSOdRiG-y1bQQgDe-7" value="AidConetent" style="rounded=0;whiteSpace=wrap;html=1;" parent="1" vertex="1">
          <mxGeometry x="71.5" y="358" width="110" height="48" as="geometry" />
        </mxCell>
        <mxCell id="cqWDmSOdRiG-y1bQQgDe-8" value="Frequency" style="rounded=0;whiteSpace=wrap;html=1;" parent="1" vertex="1">
          <mxGeometry x="181.5" y="358" width="120" height="48" as="geometry" />
        </mxCell>
        <mxCell id="cqWDmSOdRiG-y1bQQgDe-10" value="RegistraTionData" style="rounded=0;whiteSpace=wrap;html=1;" parent="1" vertex="1">
          <mxGeometry x="301.5" y="358" width="120" height="48" as="geometry" />
        </mxCell>
        <mxCell id="cqWDmSOdRiG-y1bQQgDe-11" value="NextDueDate" style="rounded=0;whiteSpace=wrap;html=1;" parent="1" vertex="1">
          <mxGeometry x="421.5" y="358" width="120" height="48" as="geometry" />
        </mxCell>
        <mxCell id="cqWDmSOdRiG-y1bQQgDe-12" value="ReceivedCount" style="rounded=0;whiteSpace=wrap;html=1;" parent="1" vertex="1">
          <mxGeometry x="538" y="358" width="120" height="48" as="geometry" />
        </mxCell>
        <mxCell id="cqWDmSOdRiG-y1bQQgDe-13" value="IsActive" style="rounded=0;whiteSpace=wrap;html=1;" parent="1" vertex="1">
          <mxGeometry x="658" y="358" width="120" height="48" as="geometry" />
        </mxCell>
        <mxCell id="cqWDmSOdRiG-y1bQQgDe-16" value="" style="shape=singleArrow;whiteSpace=wrap;html=1;arrowWidth=0.4;arrowSize=0.4;rounded=0;" parent="1" vertex="1">
          <mxGeometry x="838.5" y="350" width="80" height="60" as="geometry" />
        </mxCell>
        <mxCell id="cqWDmSOdRiG-y1bQQgDe-18" value="&lt;b&gt;&lt;font style=&quot;font-size: 13px;&quot;&gt;&lt;i&gt;InKindAid&lt;/i&gt;&lt;/font&gt;&lt;/b&gt;" style="shape=process;whiteSpace=wrap;html=1;backgroundOutline=1;rounded=0;" parent="1" vertex="1">
          <mxGeometry x="960" y="358" width="140" height="44" as="geometry" />
        </mxCell>
        <mxCell id="cqWDmSOdRiG-y1bQQgDe-20" value="&lt;b&gt;&lt;i&gt;&lt;font style=&quot;font-size: 13px;&quot;&gt;SeasonallnKidAid&lt;/font&gt;&lt;/i&gt;&lt;/b&gt;" style="shape=process;whiteSpace=wrap;html=1;backgroundOutline=1;rounded=0;" parent="1" vertex="1">
          <mxGeometry x="767" y="264" width="163" height="44" as="geometry" />
        </mxCell>
        <mxCell id="cqWDmSOdRiG-y1bQQgDe-22" value="" style="shape=singleArrow;whiteSpace=wrap;html=1;arrowWidth=0.4;arrowSize=0.4;rounded=0;" parent="1" vertex="1">
          <mxGeometry x="640" y="256" width="80" height="60" as="geometry" />
        </mxCell>
        <mxCell id="cqWDmSOdRiG-y1bQQgDe-24" value="" style="shape=singleArrow;whiteSpace=wrap;html=1;arrowWidth=0.4;arrowSize=0.4;rounded=0;" parent="1" vertex="1">
          <mxGeometry x="640" y="176" width="80" height="60" as="geometry" />
        </mxCell>
        <mxCell id="cqWDmSOdRiG-y1bQQgDe-26" value="&lt;b&gt;&lt;i&gt;&lt;font style=&quot;font-size: 13px;&quot;&gt;SeasonallFinancialAid&lt;/font&gt;&lt;/i&gt;&lt;/b&gt;" style="shape=process;whiteSpace=wrap;html=1;backgroundOutline=1;rounded=0;" parent="1" vertex="1">
          <mxGeometry x="780" y="184" width="250" height="44" as="geometry" />
        </mxCell>
        <mxCell id="cqWDmSOdRiG-y1bQQgDe-28" value="" style="shape=singleArrow;whiteSpace=wrap;html=1;arrowWidth=0.4;arrowSize=0.4;rounded=0;" parent="1" vertex="1">
          <mxGeometry x="865" y="99.5" width="80" height="60" as="geometry" />
        </mxCell>
        <mxCell id="cqWDmSOdRiG-y1bQQgDe-30" value="&lt;b&gt;&lt;i&gt;&lt;font style=&quot;font-size: 14px;&quot;&gt;Cases&lt;/font&gt;&lt;/i&gt;&lt;/b&gt;" style="shape=process;whiteSpace=wrap;html=1;backgroundOutline=1;rounded=0;" parent="1" vertex="1">
          <mxGeometry x="990" y="110" width="200" height="49.5" as="geometry" />
        </mxCell>
        <mxCell id="cqWDmSOdRiG-y1bQQgDe-32" value="&lt;font style=&quot;color: rgb(0, 0, 204);&quot;&gt;&lt;b&gt;&lt;u&gt;ID&lt;/u&gt;&lt;/b&gt;&lt;/font&gt;" style="rounded=0;whiteSpace=wrap;html=1;" parent="1" vertex="1">
          <mxGeometry x="-100" y="520" width="40" height="50" as="geometry" />
        </mxCell>
        <mxCell id="cqWDmSOdRiG-y1bQQgDe-34" value="AidType" style="rounded=0;whiteSpace=wrap;html=1;" parent="1" vertex="1">
          <mxGeometry x="60" y="520" width="120" height="50" as="geometry" />
        </mxCell>
        <mxCell id="cqWDmSOdRiG-y1bQQgDe-35" value="Amount" style="rounded=0;whiteSpace=wrap;html=1;" parent="1" vertex="1">
          <mxGeometry x="180" y="520" width="120" height="50" as="geometry" />
        </mxCell>
        <mxCell id="cqWDmSOdRiG-y1bQQgDe-36" value="RegistraTionDate" style="rounded=0;whiteSpace=wrap;html=1;" parent="1" vertex="1">
          <mxGeometry x="300" y="520" width="170" height="50" as="geometry" />
        </mxCell>
        <mxCell id="cqWDmSOdRiG-y1bQQgDe-37" value="ReceivedDate" style="rounded=0;whiteSpace=wrap;html=1;" parent="1" vertex="1">
          <mxGeometry x="470" y="520" width="150" height="50" as="geometry" />
        </mxCell>
        <mxCell id="cqWDmSOdRiG-y1bQQgDe-41" value="" style="endArrow=classic;html=1;rounded=0;entryX=0.654;entryY=-0.075;entryDx=0;entryDy=0;exitX=0.5;exitY=0;exitDx=0;exitDy=0;entryPerimeter=0;" parent="1" source="rWfCg9TSfhqG7Xw_bbmV-17" target="1GrM7Xqsn6JVTcsqMOQJ-6" edge="1">
          <mxGeometry width="50" height="50" relative="1" as="geometry">
            <mxPoint x="-100" y="80" as="sourcePoint" />
            <mxPoint x="470" y="200" as="targetPoint" />
            <Array as="points">
              <mxPoint x="-60" y="80" />
              <mxPoint x="-60" y="40" />
              <mxPoint x="-220" y="40" />
              <mxPoint x="-220" y="190" />
              <mxPoint x="-220" y="320" />
              <mxPoint x="-220" y="440" />
              <mxPoint x="-100" y="440" />
              <mxPoint x="20" y="440" />
            </Array>
          </mxGeometry>
        </mxCell>
        <mxCell id="cqWDmSOdRiG-y1bQQgDe-42" value="&lt;b&gt;&lt;u&gt;&lt;font style=&quot;color: rgb(0, 0, 204);&quot;&gt;ID&lt;/font&gt;&lt;/u&gt;&lt;/b&gt;" style="rounded=0;whiteSpace=wrap;html=1;" parent="1" vertex="1">
          <mxGeometry x="-88.5" y="715" width="40" height="50" as="geometry" />
        </mxCell>
        <mxCell id="cqWDmSOdRiG-y1bQQgDe-43" value="AidType" style="rounded=0;whiteSpace=wrap;html=1;" parent="1" vertex="1">
          <mxGeometry x="70.5" y="715" width="120" height="50" as="geometry" />
        </mxCell>
        <mxCell id="cqWDmSOdRiG-y1bQQgDe-44" value="Frequency" style="rounded=0;whiteSpace=wrap;html=1;" parent="1" vertex="1">
          <mxGeometry x="190.5" y="715" width="120" height="50" as="geometry" />
        </mxCell>
        <mxCell id="cqWDmSOdRiG-y1bQQgDe-45" value="RegistraTionData" style="rounded=0;whiteSpace=wrap;html=1;" parent="1" vertex="1">
          <mxGeometry x="310.5" y="715" width="160" height="50" as="geometry" />
        </mxCell>
        <mxCell id="cqWDmSOdRiG-y1bQQgDe-46" value="NextDueDate" style="rounded=0;whiteSpace=wrap;html=1;" parent="1" vertex="1">
          <mxGeometry x="470.5" y="715" width="160" height="50" as="geometry" />
        </mxCell>
        <mxCell id="cqWDmSOdRiG-y1bQQgDe-47" value="Amount" style="rounded=0;whiteSpace=wrap;html=1;" parent="1" vertex="1">
          <mxGeometry x="630" y="715" width="120" height="50" as="geometry" />
        </mxCell>
        <mxCell id="cqWDmSOdRiG-y1bQQgDe-48" value="ReceivedCount" style="rounded=0;whiteSpace=wrap;html=1;" parent="1" vertex="1">
          <mxGeometry x="750" y="715" width="160" height="50" as="geometry" />
        </mxCell>
        <mxCell id="cqWDmSOdRiG-y1bQQgDe-49" value="IsActive" style="rounded=0;whiteSpace=wrap;html=1;" parent="1" vertex="1">
          <mxGeometry x="910" y="715" width="120" height="50" as="geometry" />
        </mxCell>
        <mxCell id="cqWDmSOdRiG-y1bQQgDe-50" value="" style="endArrow=classic;html=1;rounded=0;exitX=0.25;exitY=0;exitDx=0;exitDy=0;entryX=0.571;entryY=0.056;entryDx=0;entryDy=0;entryPerimeter=0;" parent="1" source="rWfCg9TSfhqG7Xw_bbmV-17" target="1GrM7Xqsn6JVTcsqMOQJ-7" edge="1">
          <mxGeometry width="50" height="50" relative="1" as="geometry">
            <mxPoint x="-80" as="sourcePoint" />
            <mxPoint x="20" y="680" as="targetPoint" />
            <Array as="points">
              <mxPoint x="-70" y="80" />
              <mxPoint x="-100" y="80" />
              <mxPoint x="-160" y="80" />
              <mxPoint x="-260" y="80" />
              <mxPoint x="-260" y="330" />
              <mxPoint x="-260" y="680" />
              <mxPoint x="-210" y="680" />
              <mxPoint x="-130" y="680" />
              <mxPoint x="20" y="680" />
            </Array>
          </mxGeometry>
        </mxCell>
        <mxCell id="cqWDmSOdRiG-y1bQQgDe-53" value="" style="shape=singleArrow;whiteSpace=wrap;html=1;arrowWidth=0.4;arrowSize=0.4;rounded=0;" parent="1" vertex="1">
          <mxGeometry x="710" y="520" width="80" height="60" as="geometry" />
        </mxCell>
        <mxCell id="cqWDmSOdRiG-y1bQQgDe-54" value="&lt;b&gt;&lt;i&gt;&lt;font style=&quot;font-size: 14px;&quot;&gt;SpecialAid&lt;/font&gt;&lt;/i&gt;&lt;/b&gt;" style="shape=process;whiteSpace=wrap;html=1;backgroundOutline=1;rounded=0;" parent="1" vertex="1">
          <mxGeometry x="817" y="520" width="123" height="60" as="geometry" />
        </mxCell>
        <mxCell id="cqWDmSOdRiG-y1bQQgDe-56" value="" style="shape=singleArrow;whiteSpace=wrap;html=1;arrowWidth=0.4;arrowSize=0.4;rounded=0;" parent="1" vertex="1">
          <mxGeometry x="1110" y="710" width="80" height="60" as="geometry" />
        </mxCell>
        <mxCell id="cqWDmSOdRiG-y1bQQgDe-58" value="&lt;b&gt;&lt;i&gt;&lt;font style=&quot;font-size: 15px;&quot;&gt;FinancialAid&lt;/font&gt;&lt;/i&gt;&lt;/b&gt;" style="shape=process;whiteSpace=wrap;html=1;backgroundOutline=1;rounded=0;" parent="1" vertex="1">
          <mxGeometry x="1220" y="720" width="160" height="60" as="geometry" />
        </mxCell>
        <mxCell id="1GrM7Xqsn6JVTcsqMOQJ-5" value="Case ID" style="rounded=0;whiteSpace=wrap;html=1;" parent="1" vertex="1">
          <mxGeometry x="-48.5" y="358" width="120" height="44" as="geometry" />
        </mxCell>
        <mxCell id="1GrM7Xqsn6JVTcsqMOQJ-6" value="Case ID" style="rounded=0;whiteSpace=wrap;html=1;" parent="1" vertex="1">
          <mxGeometry x="-60" y="520" width="120" height="50" as="geometry" />
        </mxCell>
        <mxCell id="1GrM7Xqsn6JVTcsqMOQJ-7" value="Case ID" style="rounded=0;whiteSpace=wrap;html=1;" parent="1" vertex="1">
          <mxGeometry x="-48.5" y="717.5" width="120" height="45" as="geometry" />
        </mxCell>
      </root>
    </mxGraphModel>
  </diagram>
</mxfile>
